<?xml version="1.0" encoding="UTF-8"?>
<svg version="1.1" xmlns="http://www.w3.org/2000/svg" width="512" height="512">
<path d="M0 0 C3.3001711 2.91691952 6.51458585 5.91338117 9.67822266 8.97753906 C11.10551359 10.35895791 12.54870738 11.72388538 13.9921875 13.08837891 C21.13454901 19.98896796 27.21863096 27.44504085 33.13671875 35.38916016 C33.78471436 36.25395996 33.78471436 36.25395996 34.44580078 37.13623047 C71.12389856 86.36465879 86.3666504 147.30744278 78.10546875 208.08056641 C70.61797154 258.64437761 47.60764721 302.89942325 12.13671875 339.38916016 C11.38777344 340.17806641 10.63882812 340.96697266 9.8671875 341.77978516 C4.68655041 347.13979258 -1.02675896 351.76471988 -6.86328125 356.38916016 C-7.8171875 357.17162109 -8.77109375 357.95408203 -9.75390625 358.76025391 C-55.26284941 395.22575323 -116.12676076 411.16816756 -173.76611328 405.56469727 C-225.69601955 399.82515731 -273.77946083 378.24299679 -311.40478516 341.80078125 C-312.83207609 340.41936241 -314.27526988 339.05443493 -315.71875 337.68994141 C-322.86111151 330.78935236 -328.94519346 323.33327946 -334.86328125 315.38916016 C-335.51127686 314.52436035 -335.51127686 314.52436035 -336.17236328 313.64208984 C-373.07576699 264.11126153 -387.90779299 203.16288381 -379.90234375 142.06494141 C-378.32758303 131.31555584 -375.81184084 120.83739336 -372.86328125 110.38916016 C-372.48478027 109.04096191 -372.48478027 109.04096191 -372.09863281 107.66552734 C-362.01909376 72.75685347 -342.4654135 40.85598582 -317.27490234 14.84765625 C-315.8934835 13.42036532 -314.52855602 11.97717153 -313.1640625 10.53369141 C-306.26347345 3.39132989 -298.80740055 -2.69275206 -290.86328125 -8.61083984 C-290.28674805 -9.04283691 -289.71021484 -9.47483398 -289.11621094 -9.91992188 C-206.66680491 -71.34961767 -89.21069021 -70.95375512 0 0 Z M-217.86328125 -28.61083984 C-218.7130957 -28.32756836 -219.56291016 -28.04429688 -220.43847656 -27.75244141 C-239.28251947 -21.31945052 -257.80949296 -12.47566588 -273.86328125 -0.61083984 C-274.91257812 0.15615234 -275.961875 0.92314453 -277.04296875 1.71337891 C-286.67492593 8.87556706 -295.39096389 16.88977469 -303.86328125 25.38916016 C-304.61867188 26.10974609 -305.3740625 26.83033203 -306.15234375 27.57275391 C-344.53790026 64.61032264 -364.41986899 119.2116781 -365.796875 171.80712891 C-366.1874949 195.86520315 -362.47314828 219.55955908 -354.86328125 242.38916016 C-354.58000977 243.23897461 -354.29673828 244.08878906 -354.00488281 244.96435547 C-344.35475169 273.23230863 -329.10520053 298.12412209 -308.94140625 320.06494141 C-307.51704264 321.65797966 -306.14615344 323.2999949 -304.82421875 324.97900391 C-303.07012695 327.13492949 -301.35602281 328.85485025 -299.23828125 330.63916016 C-297.01921691 332.52556768 -294.83556961 334.4153575 -292.71875 336.41650391 C-252.88298198 373.94491909 -195.74295332 391.86133681 -141.73828125 390.30395508 C-91.05924771 387.99986273 -43.42768898 367.6913266 -6.1875 333.46728516 C-4.59446175 332.04292154 -2.95244651 330.67203235 -1.2734375 329.35009766 C0.88248808 327.59600585 2.60240884 325.88190171 4.38671875 323.76416016 C6.27312628 321.54509582 8.16291609 319.36144852 10.1640625 317.24462891 C47.57299628 277.53568835 65.42634464 220.82493229 64.04711914 167.00268555 C63.24079127 147.02143843 59.45308739 127.33826606 53.13671875 108.38916016 C52.85344727 107.5393457 52.57017578 106.68953125 52.27832031 105.81396484 C45.84532943 86.96992194 37.00154479 68.44294845 25.13671875 52.38916016 C24.36972656 51.33986328 23.60273438 50.29056641 22.8125 49.20947266 C15.65031185 39.57751548 7.63610422 30.86147752 -0.86328125 22.38916016 C-1.58386719 21.63376953 -2.30445313 20.87837891 -3.046875 20.10009766 C-40.08444374 -18.28545885 -94.6857992 -38.16742758 -147.28125 -39.54443359 C-171.33932424 -39.9350535 -195.03368017 -36.22070687 -217.86328125 -28.61083984 Z " fill="#000000" transform="translate(406.86328125,80.61083984375)"/>
<path d="M0 0 C4.05976902 2.53815481 7.5087811 5.74508631 11 9 C11.83289551 9.77077881 11.83289551 9.77077881 12.68261719 10.55712891 C15.06451529 12.76394619 17.44203319 14.97512525 19.80712891 17.19995117 C23.26861838 20.44527493 26.79216572 23.53373258 30.5 26.5 C35.5043432 30.50347456 40.14699302 34.81336708 44.80859375 39.203125 C48.27096211 42.44578071 51.79305103 45.53444083 55.5 48.5 C60.5043432 52.50347456 65.14699302 56.81336708 69.80859375 61.203125 C73.27096211 64.44578071 76.79305103 67.53444083 80.5 70.5 C85.5043432 74.50347456 90.14699302 78.81336708 94.80859375 83.203125 C98.27096211 86.44578071 101.79305103 89.53444083 105.5 92.5 C110.5043432 96.50347456 115.14699302 100.81336708 119.80859375 105.203125 C123.27096211 108.44578071 126.79305103 111.53444083 130.5 114.5 C135.50061084 118.50048867 140.14143888 122.80566152 144.79760742 127.19433594 C148.36001704 130.53302408 151.99711871 133.69769497 155.8125 136.75 C169.21152246 147.54861958 169.21152246 147.54861958 170.82421875 152.5625 C171.07555503 156.04769637 169.79692827 158.07167244 168 161 C165.54724859 162.2263757 163.9494219 162.11415314 161.2109375 162.09765625 C160.26992188 162.09443359 159.32890625 162.09121094 158.359375 162.08789062 C157.37453125 162.07951172 156.3896875 162.07113281 155.375 162.0625 C154.38242187 162.05798828 153.38984375 162.05347656 152.3671875 162.04882812 C149.9113984 162.03702145 147.45572896 162.020554 145 162 C145.00368717 162.74783595 145.00737434 163.4956719 145.01117325 164.26616955 C145.09950033 182.4604203 145.16569793 200.65462828 145.20724869 218.84904766 C145.22787629 227.64773443 145.25600061 236.44627812 145.30175781 245.24487305 C145.3416196 252.91349836 145.36743138 260.58202004 145.37635398 268.25074607 C145.38156988 272.31154286 145.39383299 276.37204318 145.42292023 280.43274498 C145.4500791 284.25522398 145.45844417 288.07728452 145.45243073 291.89985085 C145.45353077 293.30231119 145.46148226 294.70478559 145.4768219 296.10716248 C145.49675276 298.02333945 145.48954759 299.93974117 145.48101807 301.85600281 C145.48470524 302.92804805 145.48839241 304.00009329 145.49219131 305.10462475 C144.86997987 308.7648592 143.63246006 310.41667609 141 313 C137.07134937 314.5680635 132.7435708 314.1552843 128.56298828 314.16113281 C127.71372772 314.16609772 126.86446716 314.17106262 125.98947144 314.17617798 C123.18307685 314.19076989 120.37673877 314.19759623 117.5703125 314.203125 C115.61742146 314.20887837 113.66453042 314.21463608 111.7116394 314.22039795 C107.61781552 314.23089911 103.52401123 314.23674774 99.43017578 314.24023438 C94.18895863 314.24572086 88.94800104 314.26975597 83.70686531 314.29820633 C79.67307786 314.31684414 75.63935284 314.3220389 71.60552597 314.32357025 C69.67345636 314.32659412 67.74138778 314.33461366 65.8093605 314.34775543 C63.10464035 314.36484169 60.40055326 314.36292954 57.69580078 314.35644531 C56.90079163 314.3656601 56.10578247 314.37487488 55.28668213 314.3843689 C50.47335864 314.34828642 47.17503691 313.65636806 43 311 C41.72061421 308.44122843 41.8544548 306.59607858 41.82641602 303.73095703 C41.81292618 302.62865753 41.79943634 301.52635803 41.78553772 300.39065552 C41.76988014 298.59239822 41.76988014 298.59239822 41.75390625 296.7578125 C41.7209379 294.2213511 41.68772681 291.68489285 41.65429688 289.1484375 C41.60709724 285.14845159 41.56273235 281.1485067 41.52319336 277.1484375 C41.48314989 273.28891877 41.43165285 269.42967573 41.37890625 265.5703125 C41.36628502 263.80241867 41.36628502 263.80241867 41.35340881 261.99880981 C41.13355823 247.02036641 38.74029943 233.81362259 29 222 C18.7152245 212.32582341 7.02585757 208.14885934 -7 208 C-17.93990937 208.97899757 -29.41048431 214.05769437 -36.98046875 222.10546875 C-47.55817854 235.20919879 -49.11862518 248.73550894 -49.17578125 265.109375 C-49.19895691 267.66276887 -49.22307328 270.21615434 -49.24804688 272.76953125 C-49.28329182 276.77463858 -49.31428706 280.77942863 -49.32592773 284.78466797 C-49.34134684 288.66411611 -49.38148816 292.54266345 -49.42578125 296.421875 C-49.42387283 297.62293884 -49.42196442 298.82400269 -49.41999817 300.0614624 C-49.43648911 301.17652161 -49.45298004 302.29158081 -49.4699707 303.44042969 C-49.47583694 304.42001648 -49.48170319 305.39960327 -49.48774719 306.40887451 C-50 309 -50 309 -51.46366882 311.31413269 C-55.25574508 313.8346779 -58.6489078 313.5670104 -63.11132812 313.53344727 C-64.03207626 313.54206284 -64.9528244 313.55067841 -65.901474 313.55955505 C-68.9450186 313.58225803 -71.98764575 313.57546852 -75.03125 313.56640625 C-77.14587682 313.57163968 -79.26050129 313.57791512 -81.37512207 313.58518982 C-85.80699651 313.59560187 -90.23855002 313.59102052 -94.67041016 313.57641602 C-100.35376029 313.5592218 -106.03610008 313.58272763 -111.71933746 313.61790562 C-116.0859448 313.63985007 -120.45230924 313.63844535 -124.81895447 313.6301403 C-126.91455697 313.62931927 -129.01017704 313.63621159 -131.10572815 313.65091133 C-134.03401085 313.66830368 -136.96046334 313.65385917 -139.88867188 313.63110352 C-140.75632675 313.64279572 -141.62398163 313.65448792 -142.51792908 313.66653442 C-143.31699173 313.65388046 -144.11605438 313.6412265 -144.93933105 313.62818909 C-145.97685139 313.62730962 -145.97685139 313.62730962 -147.03533173 313.62641239 C-150.19493743 312.61900763 -151.2778025 310.75813681 -153 308 C-153.49219131 305.10462475 -153.49219131 305.10462475 -153.48101807 301.85600281 C-153.48651672 300.62066299 -153.49201538 299.38532318 -153.49768066 298.11254883 C-153.48352603 296.75170507 -153.46898681 295.39086526 -153.45410156 294.0300293 C-153.45297275 292.59088676 -153.45360761 291.15174191 -153.45587158 289.71260071 C-153.45701836 285.81199229 -153.43351541 281.91187677 -153.40557575 278.01138282 C-153.3805558 273.93281035 -153.37821964 269.85422636 -153.37347412 265.77558899 C-153.36104606 258.05496576 -153.32822684 250.33456932 -153.28807616 242.61404592 C-153.2433531 233.82331912 -153.22137008 225.03258145 -153.20129442 216.24176919 C-153.15949399 198.16105092 -153.08914532 180.0805437 -153 162 C-153.61520508 162.02094727 -154.23041016 162.04189453 -154.86425781 162.06347656 C-157.65933809 162.14677017 -160.45415715 162.19870013 -163.25 162.25 C-164.21808594 162.28351563 -165.18617188 162.31703125 -166.18359375 162.3515625 C-173.36794644 162.45065702 -173.36794644 162.45065702 -176.61328125 160.13671875 C-178.26133589 157.59732188 -178.92585426 156.03997541 -179 153 C-175.68704791 144.82805151 -166.70552449 138.8843472 -160.0546875 133.55078125 C-156.58257166 130.65143132 -153.29073726 127.60145499 -150 124.5 C-145.10922418 119.89400186 -140.09230872 115.57384698 -134.84375 111.375 C-131.44364928 108.53535544 -128.22413555 105.53611901 -125 102.5 C-120.10900556 97.89422554 -115.09232912 93.5738633 -109.84375 89.375 C-106.44364815 86.5353545 -103.224149 83.53610629 -100 80.5 C-95.09039702 75.87705042 -90.05521457 71.53398821 -84.7890625 67.31640625 C-80.36265837 63.64013503 -76.19198888 59.69573628 -71.984375 55.7734375 C-67.37851774 51.48018201 -62.6189993 47.37670578 -57.82421875 43.296875 C-56.63254314 42.28156606 -55.4411459 41.26593033 -54.25 40.25 C-53.64639648 39.73526123 -53.04279297 39.22052246 -52.42089844 38.69018555 C-48.47534169 35.30910646 -44.61889068 31.84905793 -40.8125 28.3125 C-37.18716792 24.94416553 -33.48767607 21.7207798 -29.625 18.625 C-24.37651479 14.41088779 -19.47578247 9.88053324 -14.59423828 5.25244141 C-9.94626114 0.86261204 -6.56645858 -1.60131314 0 0 Z M-11.125 24.5625 C-12.31575198 25.67908356 -13.50715487 26.79497339 -14.69921875 27.91015625 C-15.27333496 28.44914551 -15.84745117 28.98813477 -16.43896484 29.54345703 C-20.5680971 33.39619444 -24.8756082 37.04415079 -29.17578125 40.703125 C-30.36745686 41.71843394 -31.5588541 42.73406967 -32.75 43.75 C-33.65540527 44.52210815 -33.65540527 44.52210815 -34.57910156 45.30981445 C-38.52465831 48.69089354 -42.38110932 52.15094207 -46.1875 55.6875 C-49.81283208 59.05583447 -53.51232393 62.2792202 -57.375 65.375 C-62.41416406 69.42666217 -67.10465771 73.77354616 -71.80810547 78.20263672 C-76.101263 82.22343643 -80.56246351 85.94997081 -85.15625 89.625 C-88.55635072 92.46464456 -91.77586445 95.46388099 -95 98.5 C-99.05876728 102.32207891 -103.14296809 106.01437447 -107.5 109.5 C-113.17917312 114.04669399 -118.44149289 118.98613252 -123.7421875 123.9609375 C-126.97737446 126.99380819 -130.28469155 129.93393472 -133.64453125 132.828125 C-134.45243819 133.52660362 -135.24482254 134.24482254 -136 135 C-136.09685318 137.08827321 -136.12186882 139.17988362 -136.12025452 141.270401 C-136.12110894 141.93279091 -136.12196337 142.59518082 -136.12284368 143.27764314 C-136.12450033 145.5133287 -136.11897414 147.74894042 -136.11352539 149.98461914 C-136.11324353 151.58080544 -136.11340123 153.17699187 -136.1139679 154.7731781 C-136.11425592 159.12009895 -136.10835835 163.46699244 -136.10139394 167.81390691 C-136.09516128 172.35163947 -136.09455667 176.88937259 -136.09336853 181.42710876 C-136.09025495 190.0260784 -136.08204122 198.62503539 -136.07201904 207.22399944 C-136.06085872 217.01101728 -136.05534766 226.79803571 -136.05032361 236.58505833 C-136.03985862 256.72338086 -136.02151282 276.86168604 -136 297 C-112.9 297 -89.8 297 -66 297 C-65.75097075 280.71144584 -65.75097075 280.71144584 -65.52197266 264.42260742 C-65.48671933 262.35854883 -65.45079294 260.29450158 -65.4140625 258.23046875 C-65.40270264 257.18556274 -65.39134277 256.14065674 -65.37963867 255.06408691 C-65.02011584 236.53133471 -59.36744875 222.08244379 -46.8125 208.3125 C-33.94462564 196.1465097 -17.70463552 191.40518494 -0.37109375 191.72265625 C16.1241063 192.46256592 29.42132692 199.46224096 41 211 C41.56460938 211.54140625 42.12921875 212.0828125 42.7109375 212.640625 C58.27580611 228.94667783 57.4821427 251.46311353 57.6875 272.375 C57.790625 280.50125 57.89375 288.6275 58 297 C81.1 297 104.2 297 128 297 C128.18068113 276.01597187 128.32800899 255.03257479 128.41449738 234.047966 C128.4557252 224.30415473 128.51191939 214.56086153 128.60351562 204.81738281 C128.68332559 196.32360055 128.73488273 187.83019351 128.75270796 179.3360467 C128.76312588 174.8394185 128.78755703 170.34386365 128.84584045 165.84757996 C128.90029827 161.61195359 128.91686221 157.37783851 128.90486145 153.14189529 C128.90705552 151.5906667 128.92287989 150.0393856 128.9536438 148.48846054 C129.26780236 140.02655771 129.26780236 140.02655771 126.25393677 132.33259583 C124.26954885 130.31737738 122.29489924 128.64494788 120 127 C118.64841797 125.84757812 118.64841797 125.84757812 117.26953125 124.671875 C116.05330078 123.72054687 116.05330078 123.72054687 114.8125 122.75 C108.74515821 117.87927284 103.10312084 112.61264206 97.41601562 107.31152344 C93.32302632 103.52056852 89.07232906 99.91154954 84.82421875 96.296875 C83.63254314 95.28156606 82.4411459 94.26593033 81.25 93.25 C80.34459473 92.47789185 80.34459473 92.47789185 79.42089844 91.69018555 C74.9605894 87.86799806 70.62741347 83.92786594 66.32470703 79.93017578 C63.18496883 77.03251776 59.95833511 74.29653427 56.625 71.625 C51.58583594 67.57333783 46.89534229 63.22645384 42.19189453 58.79736328 C38.72938522 55.55451548 35.20713152 52.46570521 31.5 49.5 C26.50340616 45.50272493 21.86660234 41.20090505 17.21337891 36.81665039 C12.73646783 32.62225082 8.11606786 28.71196254 3.3046875 24.90234375 C1 23 1 23 -1.1796875 20.75390625 C-5.26487898 16.81774536 -7.93402981 21.52288195 -11.125 24.5625 Z " fill="#000000" transform="translate(260,74)"/>
</svg>
